<svg xmlns="http://www.w3.org/2000/svg" width="595" height="842" viewBox="0 0 595 842">
  <rect width="595" height="842" fill="#ffffff"/>
  
  <!-- Outer Page Border -->
  <rect x="25" y="25" width="545" height="792" fill="none" stroke="#0F172A" stroke-width="1"/>
  <rect x="23" y="23" width="549" height="796" fill="none" stroke="#0F172A" stroke-width="0.5"/>

  <!-- Top Dark Blue Header Bar -->
  <rect x="25" y="25" width="545" height="40" fill="#0F172A"/>
  <text x="80" y="50" font-family="Arial" font-size="14" font-weight="700" fill="#FFFFFF" letter-spacing="1">CORPORATE MATRIX SOLUTION</text>
  <text x="550" y="50" text-anchor="end" font-family="Arial" font-size="12" font-weight="700" fill="#38BDF8">QUOTATION</text>

  <!-- Business Details Sub-header -->
  <g transform="translate(45, 80)" font-family="Arial" font-size="7.5" fill="#334155">
    <text x="0" y="0" font-weight="700" font-size="9" fill="#0F172A">Enterprise Systems &amp; Services Ltd.</text>
    <text x="0" y="12">GSTIN: 27AAAAA0000A1Z5 | PAN: AAAAA0000A</text>
  </g>

  <line x1="25" y1="112" x2="570" y2="112" stroke="#0F172A" stroke-width="1"/>

  <!-- 3 Box Metadata Section -->
  <rect x="25" y="112" width="545" height="70" fill="#F8FAFC"/>
  <line x1="205" y1="112" x2="205" y2="182" stroke="#CBD5E1"/>
  <line x1="385" y1="112" x2="385" y2="182" stroke="#CBD5E1"/>
  <line x1="25" y1="182" x2="570" y2="182" stroke="#0F172A" stroke-width="1"/>

  <text x="35" y="127" font-family="Arial" font-size="7" font-weight="700" fill="#0F172A">BILL TO (RECIPIENT):</text>
  <text x="35" y="139" font-family="Arial" font-size="8.5" font-weight="700" fill="#1E293B">Global Tech Industries Inc.</text>
  <text x="215" y="127" font-family="Arial" font-size="7" font-weight="700" fill="#0F172A">DOCUMENT DETAILS:</text>
  <text x="215" y="139" font-family="Arial" font-size="7.5" fill="#334155">Invoice Number: <tspan font-weight="700" fill="#0F172A">INV/2026/0942</tspan></text>

  <!-- Line Item Grid -->
  <rect x="25" y="195" width="545" height="230" fill="none" stroke="#0F172A" stroke-width="0.75"/>
  <rect x="25" y="195" width="545" height="20" fill="#0F172A"/>

  <text x="35" y="209" font-family="Arial" font-size="7" font-weight="700" fill="#FFFFFF">#</text>
  <text x="60" y="209" font-family="Arial" font-size="7" font-weight="700" fill="#FFFFFF">ITEM &amp; DESCRIPTION</text>
  <text x="260" y="209" text-anchor="middle" font-family="Arial" font-size="7" font-weight="700" fill="#FFFFFF">HSN/SAC</text>
  <text x="320" y="209" text-anchor="end" font-family="Arial" font-size="7" font-weight="700" fill="#FFFFFF">QTY</text>
  <text x="380" y="209" text-anchor="end" font-family="Arial" font-size="7" font-weight="700" fill="#FFFFFF">UNIT RATE</text>
  <text x="445" y="209" text-anchor="end" font-family="Arial" font-size="7" font-weight="700" fill="#FFFFFF">TAXABLE VAL</text>
  <text x="500" y="209" text-anchor="end" font-family="Arial" font-size="7" font-weight="700" fill="#FFFFFF">GST %</text>
  <text x="560" y="209" text-anchor="end" font-family="Arial" font-size="7" font-weight="700" fill="#FFFFFF">TOTAL</text>

  <g font-family="Arial" font-size="7.5" fill="#1E293B">
    <text x="35" y="228">1</text>
    <text x="60" y="228" font-weight="700">Enterprise Cloud Hosting Server</text>
    <text x="260" y="228" text-anchor="middle">998313</text>
    <text x="320" y="228" text-anchor="end">2</text>
    <text x="380" y="228" text-anchor="end">45,000.00</text>
    <text x="445" y="228" text-anchor="end">90,000.00</text>
    <text x="500" y="228" text-anchor="end">18%</text>
    <text x="560" y="228" text-anchor="end">106,200.00</text>
  </g>

  <!-- Totals Box Right -->
  <rect x="350" y="440" width="220" height="110" fill="none" stroke="#0F172A" stroke-width="0.75"/>
  <rect x="350" y="505" width="220" height="25" fill="#0F172A"/>
  <text x="360" y="522" font-size="9" font-weight="700" fill="#FFFFFF">GRAND TOTAL:</text>
  <text x="560" y="522" text-anchor="end" font-size="9" font-weight="700" fill="#38BDF8">₹1,47,500.00</text>

  <text x="297" y="805" text-anchor="middle" font-family="Arial" font-size="7" fill="#94A3B8">This document is generated by GoodSynk Compliance Manager</text>
</svg>
