<svg xmlns="http://www.w3.org/2000/svg" width="595" height="842" viewBox="0 0 595 842">
<rect width="595" height="842" fill="#fff"/><g transform="translate(50 28)"></g><text x="50" y="88" font-family="Arial" font-size="12" fill="#334155" letter-spacing="3">INVOICE</text><text x="420" y="65" font-family="Arial" font-size="9" fill="#64748b">INV-0011</text><text x="420" y="82" font-family="Arial" font-size="9" fill="#64748b">DUE 7/19/2026</text>
<rect x="50" y="125" width="235" height="145" rx="12" fill="#f1f5f9"/><rect x="310" y="125" width="235" height="145" rx="12" fill="#f1f5f9"/><text x="70" y="153" font-family="Arial" font-size="9" font-weight="700" fill="#334155">FROM</text><text x="70" y="178" font-family="Arial" font-size="12" font-weight="700">ABC SOLUTIONS PVT. LTD.</text><text x="70" y="198" font-family="Arial" font-size="9" fill="#64748b">123, MG Road</text><text x="70" y="214" font-family="Arial" font-size="9" fill="#64748b">Bengaluru, Karnataka 560001</text><text x="70" y="230" font-family="Arial" font-size="9" fill="#64748b">0000000000 | testuser@example.com</text><text x="70" y="246" font-family="Arial" font-size="9" fill="#64748b">GSTIN: 29CXXXX1234F1Z5</text><text x="330" y="153" font-family="Arial" font-size="9" font-weight="700" fill="#334155">BILL TO</text><text x="330" y="178" font-family="Arial" font-size="13" font-weight="700">Acme group</text><text x="330" y="198" font-family="Arial" font-size="9" fill="#64748b">123</text><text x="330" y="214" font-family="Arial" font-size="9" fill="#64748b">ABCD, Karnataka XXXXXX</text><text x="330" y="230" font-family="Arial" font-size="9" fill="#64748b">XXXXXXXXX</text><text x="50" y="315" font-family="Arial" font-size="9" font-weight="700">DESCRIPTION</text><text x="330" y="315" font-family="Arial" font-size="9" font-weight="700">QTY</text><text x="390" y="315" font-family="Arial" font-size="9" font-weight="700">PRICE</text><text x="485" y="315" font-family="Arial" font-size="9" font-weight="700">AMOUNT</text><g fill="#eef2f4"><rect x="50" y="333" width="495" height="38" rx="5"/><rect x="50" y="381" width="495" height="38" rx="5"/><rect x="50" y="429" width="495" height="38" rx="5"/></g><text x="65" y="357" font-family="Arial" font-size="9">App - Development</text><text x="330" y="357" font-family="Arial" font-size="9">1 pcs</text><text x="390" y="357" font-family="Arial" font-size="9">10,000</text><text x="485" y="357" font-family="Arial" font-size="9">10,000</text><text x="65" y="405" font-family="Arial" font-size="9">Support and maintenance</text><text x="330" y="405" font-family="Arial" font-size="9">1</text><text x="390" y="405" font-family="Arial" font-size="9">2,000</text><text x="485" y="405" font-family="Arial" font-size="9">2,000</text><text x="65" y="453" font-family="Arial" font-size="9">Deployment service</text><text x="330" y="453" font-family="Arial" font-size="9">1</text><text x="390" y="453" font-family="Arial" font-size="9">1,000</text><text x="485" y="453" font-family="Arial" font-size="9">1,000</text><rect x="325" y="500" width="220" height="145" rx="12" fill="#ccfbf1"/><text x="345" y="530" font-family="Arial" font-size="10" fill="#0f766e">SUBTOTAL</text><text x="470" y="530" font-family="Arial" font-size="10">13,000</text><text x="345" y="552" font-family="Arial" font-size="10" fill="#0f766e">CGST 2%</text><text x="470" y="552" font-family="Arial" font-size="10">200</text><text x="345" y="574" font-family="Arial" font-size="10" fill="#0f766e">SGST 2%</text><text x="470" y="574" font-family="Arial" font-size="10">200</text><line x1="345" y1="590" x2="525" y2="590" stroke="#94a3b8"/><text x="345" y="620" font-family="Arial" font-size="13" font-weight="700" fill="#123c3a">TOTAL INR</text><text x="450" y="620" font-family="Arial" font-size="16" font-weight="700" fill="#123c3a">13,400</text><text x="50" y="550" font-family="Arial" font-size="9" font-weight="700" fill="#334155">PAYMENT DETAILS</text><text x="50" y="570" font-family="Arial" font-size="9" fill="#64748b">Bank transfer due by 7/19/2026.</text><text x="50" y="590" font-family="Arial" font-size="9" fill="#64748b">Thank you for your business.</text></svg>