<svg xmlns="http://www.w3.org/2000/svg" width="595" height="842" viewBox="0 0 595 842">
<rect width="595" height="842" fill="#fff"/><rect width="190" height="842" fill="#182536"/>
<g transform="translate(32 28)"><rect width="30" height="30" rx="5" fill="#c65d2e"/><path d="M7 20h16M10 16l5-7 5 7" fill="none" stroke="#fff" stroke-width="2"/><text x="42" y="19" font-family="Arial" font-size="10" font-weight="700" fill="#fff">ABC SOLUTIONS</text><text x="42" y="31" font-family="Arial" font-size="8" fill="#dbe4ee">PVT. LTD.</text></g><text x="32" y="100" font-family="Arial" font-size="10" fill="#fff" letter-spacing="2">QUOTE</text><text x="32" y="170" font-family="Arial" font-size="20" font-weight="700" fill="#fff">ACME GROUP</text><text x="32" y="195" font-family="Arial" font-size="9" fill="#dbe4ee">123</text><text x="32" y="211" font-family="Arial" font-size="9" fill="#dbe4ee">ABCD, Karnataka XXXXXX</text><text x="32" y="227" font-family="Arial" font-size="9" fill="#dbe4ee">XXXXXXXXX</text><text x="32" y="700" font-family="Arial" font-size="9" fill="#dbe4ee">VALID UNTIL</text><text x="32" y="720" font-family="Arial" font-size="11" font-weight="700" fill="#fff">07/19/2026</text>
<text x="225" y="78" font-family="Arial" font-size="29" font-weight="700" fill="#c65d2e">QUOTATION</text><text x="225" y="112" font-family="Arial" font-size="12" font-weight="700">ABC SOLUTIONS PVT. LTD.</text><text x="225" y="132" font-family="Arial" font-size="9" fill="#666">123, MG Road, Bengaluru, Karnataka 560001</text><text x="225" y="148" font-family="Arial" font-size="9" fill="#666">0000000000  |  testuser@example.com</text><text x="225" y="164" font-family="Arial" font-size="9" font-weight="700">GSTIN: 29CXXXX1234F1Z5</text><line x1="225" y1="190" x2="555" y2="190" stroke="#c65d2e" stroke-width="3"/><text x="225" y="225" font-family="Arial" font-size="9">QUOTE NO. #1234</text><text x="425" y="225" font-family="Arial" font-size="9">DATE: 01/25/2030</text><text x="225" y="265" font-family="Arial" font-size="10" font-weight="700">PROJECT DESCRIPTION</text><text x="225" y="284" font-family="Arial" font-size="9" fill="#666">Shifting and relocation services for your project.</text><text x="225" y="330" font-family="Arial" font-size="10" font-weight="700">DESCRIPTION</text><text x="425" y="330" font-family="Arial" font-size="10" font-weight="700">QTY</text><text x="480" y="330" font-family="Arial" font-size="10" font-weight="700">TOTAL</text><g stroke="#ddd"><line x1="225" y1="345" x2="555" y2="345"/><line x1="225" y1="390" x2="555" y2="390"/><line x1="225" y1="435" x2="555" y2="435"/><line x1="225" y1="480" x2="555" y2="480"/></g><text x="225" y="374" font-family="Arial" font-size="9">Transportation Charges</text><text x="425" y="374" font-family="Arial" font-size="9">1</text><text x="480" y="374" font-family="Arial" font-size="9">10,000</text><text x="225" y="419" font-family="Arial" font-size="9">Packing Charges</text><text x="425" y="419" font-family="Arial" font-size="9">1</text><text x="480" y="419" font-family="Arial" font-size="9">4,000</text><text x="225" y="464" font-family="Arial" font-size="9">Loading Charges</text><text x="425" y="464" font-family="Arial" font-size="9">1</text><text x="480" y="464" font-family="Arial" font-size="9">4,000</text><text x="370" y="545" font-family="Arial" font-size="10">SUBTOTAL</text><text x="480" y="545" font-family="Arial" font-size="10">18,000</text><text x="370" y="565" font-family="Arial" font-size="10">SERVICE TAX 12%</text><text x="480" y="565" font-family="Arial" font-size="10">2,160</text><rect x="350" y="585" width="205" height="42" fill="#182536"/><text x="370" y="612" font-family="Arial" font-size="13" font-weight="700" fill="#c65d2e">TOTAL 20,360</text><text x="225" y="680" font-family="Arial" font-size="9" fill="#666">Shipping from: Raajajinagar, Bangalore</text><text x="225" y="696" font-family="Arial" font-size="9" fill="#666">Shipping to: MJ lifestyle, Songsandra</text></svg>